<?xml version="1.0" encoding="utf-8"?>
<!-- Generator: Adobe Illustrator 27.7.0, SVG Export Plug-In . SVG Version: 6.00 Build 0)  -->
<svg version="1.1" id="Layer_1" xmlns="http://www.w3.org/2000/svg" xmlns:xlink="http://www.w3.org/1999/xlink" x="0px" y="0px"
	 viewBox="0 0 500 500" style="enable-background:new 0 0 500 500;" xml:space="preserve">
<style type="text/css">
	.st0{fill:none;stroke:#000000;stroke-width:8;stroke-miterlimit:10;}
	.st1{fill:none;stroke:#000000;stroke-width:13;stroke-miterlimit:10;}
	.st2{fill:none;stroke:#000000;stroke-width:13;stroke-linecap:round;stroke-miterlimit:10;}
</style>
<path class="st0" d="M105.67,144.33v103c0,0,1.5,15.37-12,15.67c-15,0.33-11.5-14.17-37.33-14.33c-26.52-0.17-39,17.33-39.67,38.67
	c-0.71,22.71,9.33,45.2,37.33,45c22.83-0.17,24.17-9.33,35.67-9.67c17.49-0.51,16,12,16,12v100.67H206c0,0,12.33-2,12-13.67
	c-0.33-11.67-10.33-16-10.33-31.67S221,346.33,249,347s44.33,19.67,45,38.33c0.67,18.67-10.33,28.33-10,35.67
	s6.06,13.67,10.03,14.33c3.97,0.67,102.64,0,102.64,0V333.67c0,0-1.34-17.33,12.78-17.22c14.22,0.11,16.93,10.63,33,14.78
	c20.67,5.33,44.44-5.11,43.22-41.24C484.8,264.23,464.33,248,444,247.33c-18.88-0.62-23.33,10.67-33,10.67
	c-8.67,0-13.28-3.61-13.33-10.67c-0.02-3.02-1.67-103-1.67-103H295.33c0,0-12.89,0.65-13.83-13.5c-0.83-12.5,13.17-10,12.5-33.5
	c-0.69-24.41-13.7-41.67-42.85-41.33s-45.64,16.65-42.82,42.33c2.11,19.22,13.67,15.67,13.42,31.25
	c-0.23,14.43-14.42,13.75-14.42,13.75L105.67,144.33z"/>
<path class="st1" d="M207.47,175.14v126c0,0-60.58-100.97-60.58-126"/>
<polyline class="st2" points="232.49,175.14 232.49,316.48 316.63,316.48 316.63,181.4 365,181.4 272.33,181.4 "/>
</svg>
